<svg width="7" height="12" viewBox="0 0 7 12" fill="none" xmlns="http://www.w3.org/2000/svg">
<path d="M0.240011 1.624L4.61841 6L0.240011 10.376C0.130768 10.4892 0.0703618 10.6408 0.0718025 10.7981C0.0732433 10.9554 0.136416 11.1059 0.247713 11.2171C0.359011 11.3283 0.509529 11.3913 0.666849 11.3926C0.824168 11.3939 0.975701 11.3334 1.08881 11.224L5.88881 6.424C6.00098 6.3114 6.06395 6.15894 6.06395 6C6.06395 5.84107 6.00098 5.68861 5.88881 5.576L1.08881 0.776003C0.975701 0.666653 0.824168 0.606104 0.666849 0.607396C0.509529 0.608689 0.359011 0.671719 0.247713 0.782912C0.136416 0.894105 0.0732433 1.04456 0.0718025 1.20188C0.0703618 1.3592 0.130768 1.51079 0.240011 1.624Z" fill="black"/>
</svg>
