<svg width="10" height="7" viewBox="0 0 10 7" fill="none" xmlns="http://www.w3.org/2000/svg">
<path d="M4.99999 7C4.85647 6.99941 4.71475 6.96794 4.58448 6.90772C4.4542 6.8475 4.33842 6.75994 4.24499 6.651L0.328986 2.182C0.158854 1.98368 0.049124 1.74076 0.0127918 1.48201C-0.0235403 1.22325 0.0150481 0.959502 0.123986 0.722C0.213768 0.510105 0.363354 0.328967 0.554451 0.20074C0.745548 0.072513 0.969872 0.00275595 1.19999 0H8.79999C9.02976 0.00255103 9.2538 0.0721379 9.44459 0.200218C9.63538 0.328299 9.78461 0.509299 9.87399 0.721C9.9842 0.957395 10.0239 1.22054 9.98848 1.47894C9.95301 1.73734 9.84382 1.98005 9.67399 2.178L5.75599 6.651C5.66244 6.76007 5.5465 6.8477 5.41604 6.90793C5.28558 6.96815 5.14367 6.99956 4.99999 7Z" fill="black"/>
</svg>
