<svg width="18" height="18" viewBox="0 0 18 18" fill="none" xmlns="http://www.w3.org/2000/svg">
<path d="M9.00001 0.458557C13.8286 0.458557 17.5714 3.9957 17.5714 8.77284C17.5714 13.55 13.8286 17.0871 9.00001 17.0871C8.16184 17.0891 7.32722 16.9783 6.51858 16.7578C6.36666 16.7159 6.20489 16.7277 6.06072 16.7914L4.35715 17.5421C4.25434 17.5874 4.14199 17.6068 4.02996 17.5985C3.91792 17.5903 3.80962 17.5547 3.71456 17.4948C3.6195 17.4349 3.54059 17.3526 3.48475 17.2552C3.42891 17.1577 3.39785 17.048 3.39429 16.9357L3.34786 15.4114C3.34471 15.3186 3.3227 15.2275 3.28315 15.1435C3.24361 15.0595 3.18737 14.9844 3.11786 14.9228C2.25787 14.1481 1.57311 13.1987 1.10935 12.1381C0.645588 11.0776 0.413495 9.93027 0.428578 8.77284C0.428578 3.9957 4.17143 0.458557 9.00001 0.458557ZM3.85286 11.2043C3.80193 11.285 3.78095 11.381 3.79359 11.4756C3.80624 11.5701 3.8517 11.6573 3.92205 11.7217C3.99239 11.7862 4.08315 11.8239 4.17847 11.8283C4.27379 11.8327 4.36762 11.8035 4.44358 11.7457L7.14786 9.69284C7.23723 9.62562 7.34603 9.58927 7.45786 9.58927C7.56969 9.58927 7.67849 9.62562 7.76786 9.69284L9.76786 11.1928C9.90994 11.2991 10.0725 11.3747 10.2452 11.4151C10.4179 11.4554 10.5972 11.4596 10.7716 11.4273C10.946 11.3951 11.1119 11.3271 11.2588 11.2276C11.4056 11.1281 11.5303 10.9993 11.625 10.8493L14.1429 6.85499C14.1938 6.7743 14.2148 6.67828 14.2021 6.5837C14.1895 6.48912 14.144 6.40198 14.0737 6.33751C14.0033 6.27304 13.9126 6.23532 13.8173 6.23094C13.7219 6.22656 13.6281 6.2558 13.5521 6.31356L10.8479 8.36641C10.7585 8.43364 10.6497 8.46999 10.5379 8.46999C10.426 8.46999 10.3172 8.43364 10.2279 8.36641L8.22786 6.86641C8.08579 6.7602 7.92327 6.68453 7.75052 6.64417C7.57778 6.60381 7.39856 6.59964 7.22413 6.63191C7.0497 6.66418 6.88383 6.7322 6.73696 6.83168C6.59009 6.93117 6.46539 7.05997 6.37072 7.20999L3.85286 11.2043Z" fill="black"/>
</svg>
