<svg width="16" height="18" viewBox="0 0 16 18" fill="none" xmlns="http://www.w3.org/2000/svg">
<path d="M3.60499 15.7771C4.57642 15.7771 6.17357 15.6879 8.33357 15.29C7.95999 16.3057 6.98642 17.0336 5.84285 17.0336C4.89214 17.0336 4.05928 16.53 3.58928 15.7771H3.60499ZM15.8021 10.2357C15.9786 11.1443 15.3414 11.9479 13.9071 12.6257C13.1214 12.9964 11.3743 13.7021 8.48857 14.2636C6.26285 14.6957 4.63214 14.795 3.60571 14.795C3.30071 14.795 3.04856 14.7864 2.84999 14.775C1.26714 14.6843 0.374279 14.1771 0.197851 13.2686C-0.0700066 11.8921 0.353565 11.3607 1.05571 10.4807L1.24071 10.2486C1.71428 9.64786 1.89928 9.05786 1.59642 7.50143C0.918565 4.01572 2.48857 1.63358 5.90285 0.966434C9.31857 0.307148 11.6671 1.92572 12.345 5.41215C12.6471 6.96858 13.04 7.44572 13.7043 7.825V7.82572L13.9629 7.97215C14.9429 8.525 15.5343 8.85858 15.8021 10.2357Z" fill="black"/>
</svg>
