<svg width="20" height="20" viewBox="0 0 20 20" fill="none" xmlns="http://www.w3.org/2000/svg">
<path d="M13.4287 2.8212C14.8354 4.22768 15.6257 6.13533 15.6258 8.12451C15.6259 10.1137 14.8358 12.0214 13.4294 13.4281C12.0229 14.8347 10.1152 15.625 8.12606 15.6251C6.13689 15.6253 4.22914 14.8352 2.8225 13.4287C1.41585 12.0222 0.625544 10.1146 0.625427 8.12539C0.62531 6.13622 1.41539 4.22847 2.82187 2.82182C4.22835 1.41518 6.136 0.624873 8.12518 0.624756C10.1144 0.624639 12.0221 1.41472 13.4287 2.8212ZM12.1037 4.1462C11.0488 3.09113 9.61803 2.49834 8.12606 2.49822C6.63409 2.49811 5.20318 3.09068 4.14812 4.14557C3.09306 5.20047 2.50026 6.63129 2.50014 8.12326C2.50003 9.61523 3.0926 11.0461 4.1475 12.1012C5.20654 13.1352 6.63045 13.7101 8.11054 13.7013C9.59063 13.6926 11.0076 13.1008 12.0543 12.0542C13.101 11.0077 13.693 9.59083 13.702 8.11074C13.711 6.63065 13.1363 5.20665 12.1025 4.14745L12.1037 4.1462Z" fill="black"/>
<path d="M12.9875 10.9375C12.8902 11.1105 12.807 11.2911 12.7388 11.4775C12.545 11.9987 12.4513 12.5387 12.5238 13.0825C12.5925 13.6012 12.8138 14.075 13.1988 14.4612C13.3686 14.6317 13.5976 14.7304 13.8381 14.7367C14.0787 14.7431 14.3125 14.6566 14.4911 14.4954C14.6698 14.3341 14.7795 14.1103 14.7977 13.8703C14.8159 13.6304 14.7411 13.3926 14.5888 13.2062L14.525 13.135C14.4439 13.0548 14.3934 12.9486 14.3825 12.835C14.3563 12.6412 14.4 12.39 14.495 12.1312C14.5338 12.03 14.57 11.95 14.595 11.9037L14.61 11.8762C14.6717 11.7696 14.7119 11.6519 14.7281 11.5298C14.7443 11.4077 14.7363 11.2835 14.7046 11.1645C14.6728 11.0455 14.6179 10.9339 14.5431 10.836C14.4682 10.7382 14.3748 10.6561 14.2682 10.5944C14.1615 10.5326 14.0438 10.4925 13.9217 10.4763C13.7996 10.4601 13.6754 10.4681 13.5564 10.4998C13.4374 10.5316 13.3258 10.5864 13.2279 10.6613C13.1301 10.7362 13.048 10.8296 12.9863 10.9362L12.9875 10.9375Z" fill="black"/>
<path d="M11.9462 14.5737C11.9937 14.5512 12.0587 14.5237 12.1337 14.4937C12.3925 14.3975 12.6437 14.3537 12.8362 14.3787C12.9362 14.3912 13.015 14.4212 13.0837 14.475L13.135 14.52C13.3127 14.6856 13.5478 14.7757 13.7907 14.7715C14.0335 14.7672 14.2653 14.6688 14.437 14.497C14.6088 14.3252 14.7072 14.0935 14.7115 13.8506C14.7158 13.6078 14.6256 13.3727 14.46 13.195C14.0889 12.8221 13.6034 12.5844 13.0812 12.52C12.5375 12.4475 11.9975 12.5425 11.4762 12.7387C11.24 12.8262 11.0562 12.9175 10.935 12.9887C10.7343 13.1064 10.5845 13.2944 10.5147 13.5163C10.4449 13.7382 10.4601 13.9782 10.5573 14.1895C10.6546 14.4008 10.8269 14.5684 11.0409 14.6598C11.2548 14.7511 11.4951 14.7597 11.715 14.6837L11.7975 14.65L11.9475 14.5737H11.9462Z" fill="black"/>
<path d="M16.8288 18.9274L16.7788 18.8724L12.3113 13.6324C11.5625 12.7537 12.755 11.5624 13.6338 12.3112L18.8725 16.7787L18.9275 16.8287C19 16.9024 19.08 16.9999 19.155 17.1287C19.4663 17.6599 19.4663 18.3287 18.9625 18.8912L18.8913 18.9624C18.3288 19.4662 17.6588 19.4662 17.1275 19.1549C17.0182 19.0922 16.9174 19.0158 16.8275 18.9274H16.8288ZM17.6 18.1574L18.155 17.6024C18.1318 17.5774 18.1053 17.5555 18.0763 17.5374C17.96 17.4687 17.7475 17.4687 17.6388 17.5674L17.8988 17.8574L18.1575 17.5999L18.165 17.6087L17.89 17.9299L17.8575 17.8999L17.8988 17.8574L17.93 17.8912L17.6088 18.1662L17.6 18.1574ZM17.5663 17.6387C17.4688 17.7487 17.4688 17.9599 17.5375 18.0762C17.5552 18.1051 17.5767 18.1316 17.6013 18.1549L17.8575 17.8999L17.5663 17.6387Z" fill="black"/>
</svg>
